<?xml version="1.0" encoding="iso-8859-1"?>
<!-- Generator: Adobe Illustrator 19.0.0, SVG Export Plug-In . SVG Version: 6.00 Build 0)  -->
<svg version="1.1" id="Capa_1" xmlns="http://www.w3.org/2000/svg" xmlns:xlink="http://www.w3.org/1999/xlink" x="0px" y="0px"
	 viewBox="0 0 512 512" style="enable-background:new 0 0 512 512;" xml:space="preserve">
<g>
	<g>
		<path d="M351.916,53.781l-329.9,329.9C7.819,397.877,0,416.754,0,436.832c0,20.079,7.819,38.955,22.017,53.152
			C36.214,504.182,55.091,512,75.168,512c20.078,0,38.954-7.819,53.151-22.016L458.22,160.083L512,0L351.916,53.781z M360.05,88.166
			l21.263,21.263l-242.361,242.36l-21.263-21.263L360.05,88.166z M107.06,468.724c-8.519,8.519-19.845,13.21-31.892,13.21
			c-12.047,0-23.374-4.691-31.893-13.21c-17.585-17.585-17.585-46.199,0-63.784l10.631-10.631l63.785,63.786L107.06,468.724z
			 M138.951,436.833l-63.786-63.785l21.264-21.263l63.784,63.786L138.951,436.833z M181.473,394.311l-21.263-21.263l242.361-242.361
			l21.261,21.261L181.473,394.311z M438.568,124.167l-50.735-50.736l53.217-17.878l15.397,15.397L438.568,124.167z"/>
	</g>
</g>
<g>
</g>
<g>
</g>
<g>
</g>
<g>
</g>
<g>
</g>
<g>
</g>
<g>
</g>
<g>
</g>
<g>
</g>
<g>
</g>
<g>
</g>
<g>
</g>
<g>
</g>
<g>
</g>
<g>
</g>
</svg>
